<svg aria-hidden="true" style="position: absolute; width: 0; height: 0; overflow: hidden;" version="1.1" xmlns="http://www.w3.org/2000/svg" xmlns:xlink="http://www.w3.org/1999/xlink">
<defs>
<symbol id="icon-envelope" viewBox="0 0 32 32">
<path  d="M29 4h-26c-1.654 0-3 1.346-3 3v18c0 1.654 1.346 3 3 3h26c1.654 0 3-1.346 3-3v-18c0-1.654-1.346-3-3-3zM29 6c0.136 0 0.266 0.028 0.384 0.078l-13.384 11.6-13.384-11.6c0.113-0.049 0.245-0.078 0.384-0.078h26zM29 26h-26c-0.552 0-1-0.448-1-1v0-16.81l13.344 11.566c0.175 0.152 0.404 0.245 0.656 0.245s0.481-0.093 0.657-0.246l-0.001 0.001 13.344-11.566v16.81c0 0.552-0.448 1-1 1v0z"></path>
</symbol>
<symbol id="icon-icon-facebook" viewBox="0 0 32 32">
<path d="M16 2.667c-7.364 0-13.333 5.969-13.333 13.333 0 6.684 4.924 12.204 11.34 13.168v-9.635h-3.299v-3.505h3.299v-2.332c0-3.861 1.881-5.556 5.091-5.556 1.537 0 2.349 0.113 2.735 0.165v3.059h-2.189c-1.363 0-1.839 1.292-1.839 2.748v1.916h3.993l-0.541 3.505h-3.451v9.663c6.508-0.881 11.528-6.447 11.528-13.196 0-7.364-5.969-13.333-13.333-13.333z"></path>
</symbol>
<symbol id="icon-icon-instagram" viewBox="0 0 32 32">
<path d="M10.667 4c-3.681 0-6.667 2.985-6.667 6.667v10.667c0 3.681 2.985 6.667 6.667 6.667h10.667c3.681 0 6.667-2.985 6.667-6.667v-10.667c0-3.681-2.985-6.667-6.667-6.667h-10.667zM24 6.667c0.736 0 1.333 0.597 1.333 1.333s-0.597 1.333-1.333 1.333c-0.736 0-1.333-0.597-1.333-1.333s0.597-1.333 1.333-1.333zM16 9.333c3.681 0 6.667 2.985 6.667 6.667s-2.985 6.667-6.667 6.667c-3.681 0-6.667-2.985-6.667-6.667s2.985-6.667 6.667-6.667zM16 12c-2.209 0-4 1.791-4 4v0c0 2.209 1.791 4 4 4v0c2.209 0 4-1.791 4-4v0c0-2.209-1.791-4-4-4v0z"></path>
</symbol>
<symbol id="icon-icon-linkedin" viewBox="0 0 32 32">
<path d="M25.333 4h-18.667c-1.473 0-2.667 1.193-2.667 2.667v18.667c0 1.473 1.193 2.667 2.667 2.667h18.667c1.473 0 2.667-1.193 2.667-2.667v-18.667c0-1.473-1.193-2.667-2.667-2.667zM12 22.667h-3.364v-9.333h3.364v9.333zM10.259 11.623c-1.028 0-1.715-0.685-1.715-1.6s0.685-1.6 1.828-1.6c1.028 0 1.715 0.685 1.715 1.6s-0.685 1.6-1.828 1.6zM24 22.667h-3.256v-5.101c0-1.411-0.868-1.736-1.193-1.736s-1.411 0.217-1.411 1.736c0 0.217 0 5.101 0 5.101h-3.364v-9.333h3.364v1.303c0.433-0.76 1.301-1.303 2.929-1.303s2.931 1.303 2.931 4.232v5.101z"></path>
</symbol>
<symbol id="icon-icon-twitter" viewBox="0 0 32 32">
<path d="M29.333 5.332c-1.040 0.617-3.127 1.459-4.353 1.701-0.036 0.009-0.065 0.021-0.1 0.031-1.084-1.069-2.569-1.732-4.213-1.732-3.313 0-6 2.687-6 6 0 0.175-0.015 0.496 0 0.667-4.471 0-7.873-2.341-10.313-5.333-0.265 0.667-0.381 1.72-0.381 2.709 0 1.868 1.46 3.703 3.733 4.84-0.419 0.108-0.88 0.185-1.36 0.185-0.775 0-1.595-0.204-2.345-0.823 0 0.023 0 0.044 0 0.068 0 2.611 2.771 4.388 5.235 4.883-0.5 0.295-1.508 0.324-2 0.324-0.347 0-1.573-0.159-1.901-0.22 0.685 2.14 3.157 3.343 5.513 3.385-1.843 1.445-3.121 1.981-6.895 1.981h-1.285c2.384 1.528 5.42 2.668 8.463 2.668 9.907 0 15.537-7.551 15.537-14.668 0-0.115-0.003-0.355-0.007-0.596 0-0.024 0.007-0.047 0.007-0.071 0-0.036-0.011-0.071-0.011-0.107-0.004-0.181-0.008-0.351-0.012-0.439 1.053-0.76 1.967-1.708 2.689-2.788-0.967 0.429-2.004 0.717-3.093 0.848 1.112-0.667 2.692-2.256 3.093-3.515z"></path>
</symbol>
<symbol id="icon-mobile-icon" viewBox="0 0 32 32">
<path  d="M23 0h-14c-1.654 0-3 1.346-3 3v26c0 1.654 1.346 3 3 3h14c1.654 0 3-1.346 3-3v-26c0-1.654-1.346-3-3-3zM9 2h14c0.552 0 1 0.448 1 1v0 21h-16v-21c0-0.552 0.448-1 1-1v0zM23 30h-14c-0.552 0-1-0.448-1-1v0-3h16v3c0 0.552-0.448 1-1 1v0z"></path>
<path d="M10.708 27.478c0.18 0.163 0.293 0.399 0.293 0.66s-0.113 0.497-0.292 0.659l-0.001 0.001c-0.186 0.17-0.435 0.275-0.708 0.275s-0.522-0.104-0.709-0.275l0.001 0.001c-0.18-0.163-0.293-0.399-0.293-0.66s0.113-0.497 0.292-0.659l0.001-0.001c0.186-0.17 0.435-0.275 0.708-0.275s0.522 0.104 0.709 0.275l-0.001-0.001z"></path>
</symbol>
<symbol id="icon-linkedin" viewBox="0 0 32 32">
<path d="M29 0h-26c-1.65 0-3 1.35-3 3v26c0 1.65 1.35 3 3 3h26c1.65 0 3-1.35 3-3v-26c0-1.65-1.35-3-3-3zM12 26h-4v-14h4v14zM10 10c-1.106 0-2-0.894-2-2s0.894-2 2-2c1.106 0 2 0.894 2 2s-0.894 2-2 2zM26 26h-4v-8c0-1.106-0.894-2-2-2s-2 0.894-2 2v8h-4v-14h4v2.481c0.825-1.131 2.087-2.481 3.5-2.481 2.488 0 4.5 2.238 4.5 5v9z"></path>
</symbol>
<symbol id="icon-pacman" viewBox="0 0 32 32">
<path d="M30.148 5.588c-2.934-3.42-7.288-5.588-12.148-5.588-8.837 0-16 7.163-16 16s7.163 16 16 16c4.86 0 9.213-2.167 12.148-5.588l-10.148-10.412 10.148-10.412zM22 3.769c1.232 0 2.231 0.999 2.231 2.231s-0.999 2.231-2.231 2.231-2.231-0.999-2.231-2.231c0-1.232 0.999-2.231 2.231-2.231z"></path>
</symbol>
<symbol id="icon-ChevronRight" viewBox="0 0 19 32">
<path d="M0.047 30.547l14.531-14.547-14.531-14.547 1.406-1.406 15.969 15.953-15.969 15.953-1.406-1.406z"></path>
</symbol>
<symbol id="icon-ChevronLeft" viewBox="0 0 19 32">
<path d="M17.214 31.953l-15.969-15.953 15.969-15.953 1.406 1.406-14.531 14.547 14.531 14.547-1.406 1.406z"></path>
</symbol>
</defs>
</svg>
